HIERARCHY
ROOT Hips
{
	OFFSET 0.00000 0.00000 0.00000
	CHANNELS 6 Xposition Yposition Zposition Zrotation Yrotation Xrotation 
	JOINT LHipJoint
	{
		OFFSET 0 0 0
		CHANNELS 3 Zrotation Yrotation Xrotation
		JOINT LeftHip
		{
			OFFSET 1.86795 -1.59681 0.65681
			CHANNELS 3 Zrotation Yrotation Xrotation
			JOINT LeftKnee
			{
				OFFSET 2.30491 -6.33268 0.00000
				CHANNELS 3 Zrotation Yrotation Xrotation
				JOINT LeftAnkle
				{
					OFFSET 2.46780 -6.78022 0.00000
					CHANNELS 3 Zrotation Yrotation Xrotation
					JOINT LeftToe
					{
						OFFSET 0.07897 -0.21698 1.59652
						CHANNELS 3 Zrotation Yrotation Xrotation
						End Site
						{
							OFFSET 0.00000 -0.00000 0.82310
						}
					}
				}
			}
		}
	}
	JOINT RHipJoint
	{
		OFFSET 0 0 0
		CHANNELS 3 Zrotation Yrotation Xrotation
		JOINT RightHip
		{
			OFFSET -1.93650 -1.59681 0.65681
			CHANNELS 3 Zrotation Yrotation Xrotation
			JOINT RightKnee
			{
				OFFSET -2.29410 -6.30299 0.00000
				CHANNELS 3 Zrotation Yrotation Xrotation
				JOINT RightAnkle
				{
					OFFSET -2.48738 -6.83403 0.00000
					CHANNELS 3 Zrotation Yrotation Xrotation
					JOINT RightToe
					{
						OFFSET -0.08699 -0.23899 1.89395
						CHANNELS 3 Zrotation Yrotation Xrotation
						End Site
						{
							OFFSET -0.00000 -0.00000 0.96904
						}
					}
				}
			}
		}
	}
	JOINT lowerback
	{
		OFFSET 0 0 0
		CHANNELS 3 Zrotation Yrotation Xrotation
		JOINT Chest
		{
			OFFSET 0.03629 1.99740 -0.07548
			CHANNELS 3 Zrotation Yrotation Xrotation
			JOINT Chest2
			{
				OFFSET 0.03970 1.94298 0.17218
				CHANNELS 3 Zrotation Yrotation Xrotation
				JOINT lowerneck
				{
					OFFSET 0 0 0
					CHANNELS 3 Zrotation Yrotation Xrotation
					JOINT Neck
					{
						OFFSET -0.05054 1.79469 0.04241
						CHANNELS 3 Zrotation Yrotation Xrotation
						JOINT Head
						{
							OFFSET 0.05195 1.78475 -0.22133
							CHANNELS 3 Zrotation Yrotation Xrotation
							End Site
							{
								OFFSET 0.02420 1.80711 -0.07950
							}
						}
					}
				}
				JOINT LeftCollar
				{
					OFFSET 0 0 0
					CHANNELS 3 Zrotation Yrotation Xrotation
					JOINT LeftShoulder
					{
						OFFSET 2.92134 1.19850 0.36056
CHANNELS 3 Zrotation Xrotation Yrotation
						JOINT LeftElbow
						{
OFFSET 0 -4.841370 0.000000
CHANNELS 3 Zrotation Xrotation Yrotation
							JOINT LeftWrist
							{
OFFSET 0 -3.245200 -0.000000
CHANNELS 3 Zrotation Xrotation Yrotation
								JOINT lhand
								{
									OFFSET 0 0 0
CHANNELS 3 Zrotation Xrotation Yrotation
									JOINT LFingers
									{
OFFSET 0 -0.521220 0.000000
CHANNELS 3 Zrotation Xrotation Yrotation
										End Site
										{
OFFSET 0 -0.420220 0.000000
										}
									}
								}
								JOINT LThumb
								{
OFFSET 0 0.000000 0.000000
CHANNELS 3 Zrotation Xrotation Yrotation
									End Site
									{
OFFSET 0 -0.426640 0.426640
									}
								}
							}
						}
					}
				}
				JOINT RightCollar
				{
					OFFSET 0 0 0
					CHANNELS 3 Zrotation Yrotation Xrotation
					JOINT RightShoulder
					{
						OFFSET -2.84327 1.20795 0.50191
CHANNELS 3 Zrotation Xrotation Yrotation
						JOINT RightElbow
						{
OFFSET 0 -4.722840 0.000000
CHANNELS 3 Zrotation Xrotation Yrotation
							JOINT RightWrist
							{
OFFSET 0 -3.234590 0.000000
CHANNELS 3 Zrotation Xrotation Yrotation
								JOINT rhand
								{
									OFFSET 0 0 0
CHANNELS 3 Zrotation Xrotation Yrotation
									JOINT RFingers
									{
OFFSET 0 -0.307420 0.000000
CHANNELS 3 Zrotation Xrotation Yrotation
										End Site
										{
OFFSET 0 -0.247850 0.000000
										}
									}
								}
								JOINT RThumb
								{
OFFSET 0 0.000000 0.000000
CHANNELS 3 Zrotation Xrotation Yrotation
									End Site
									{
OFFSET 0 -0.251630 0.251630
									}
								}
							}
						}
					}
				}
			}
		}
	}
}
MOTION
Frames: 7
Frame Time: 0.008333333333333333
13.000300 16.460700 -13.892800 2.040800 -11.450800 4.415000 0.000000 0.000000 0.000000 -13.702000 -17.889200 -3.389200 0.297400 3.506600 9.692500 -0.036100 9.498900 -12.891800 0.595700 -4.941000 -13.740200 0.000000 0.000000 0.000000 11.890300 23.244500 -9.218500 -1.272800 -7.150400 20.161800 1.865000 -23.454000 -11.905500 -0.015700 0.808100 -2.221000 -0.365100 -0.190600 5.124700 1.119300 -0.282200 3.838500 1.365000 -0.166100 1.079600 -2.614900 2.676300 -11.500700 2.147100 3.797700 4.674600 1.425200 1.927200 3.474700 0.000000 -0.000000 0.000000 16.768500 -8.648100 -38.648700 15.852700 -25.320500 3.582700 -2.624900 35.905000 -39.939100 0.000000 0.000000 0.000000 -7.125000 0.000000 0.000000 -47.312700 63.613200 23.942100 0.000000 -0.000000 0.000000 -26.656000 -12.062800 61.086800 -20.132800 -30.802000 -5.599200 -8.334200 -21.744800 -18.742400 0.000000 0.000000 0.000000 7.125000 0.000000 -0.000000 12.891000 11.409900 10.358300
12.968586 16.451923 -13.947730 1.332452 -11.921848 5.095449 0.000000 0.000000 0.000000 -12.435484 -17.572001 -5.444094 0.426587 4.191682 11.616566 0.041200 8.890505 -13.402210 0.666936 -5.222512 -14.544248 0.000000 0.000000 0.000000 12.408153 22.955383 -10.385347 -1.264760 -7.128535 20.096741 1.736190 -22.656379 -11.132459 -0.048238 1.410429 -3.879002 0.193028 -0.163225 5.781988 1.052701 -0.235964 4.890157 0.983159 -0.137073 1.796665 -2.367871 3.354210 -11.514341 1.559619 4.712823 3.546292 1.217775 2.367973 3.075863 0.000000 0.000000 0.000000 8.832487 -15.663936 4.268846 12.816413 -21.017271 2.387388 13.807542 54.575266 -49.180051 0.000000 0.000000 0.000000 -7.125000 0.000000 0.000000 -52.298234 74.826284 39.125159 0.000000 0.000000 0.000000 -11.979595 -18.114086 18.662173 -15.584028 -24.953324 -3.468609 -26.886737 -15.876390 -25.867843 0.000000 0.000000 0.000000 7.125000 0.000000 0.000000 1.752216 1.452196 1.697866
12.925171 16.455452 -13.981309 1.142460 -12.139244 5.548112 0.000000 0.000000 0.000000 -11.869201 -17.583721 -6.615801 0.505765 4.558660 12.654014 0.090320 8.755994 -14.040265 0.551458 -4.757146 -13.217170 0.000000 0.000000 0.000000 12.533569 22.661167 -11.269685 -1.257236 -7.108128 20.036085 1.654368 -22.118800 -10.425852 -0.101701 2.056412 -5.661522 0.139525 -0.179216 6.322498 1.087365 -0.267141 5.564122 1.051896 -0.158944 2.197215 -2.380983 3.949374 -10.949092 1.132689 5.525427 3.533215 1.109151 2.754045 2.954975 0.000000 0.000000 0.000000 3.785043 -19.229491 15.118675 15.709619 -25.124757 3.522091 19.858305 25.756689 -51.304646 0.000000 0.000000 0.000000 -7.125000 0.000000 0.000000 -56.015953 78.259043 45.591368 0.000000 0.000000 0.000000 -1.251103 -20.855966 1.653066 -20.184793 -30.864082 -5.626006 -45.866603 -58.740511 -30.878105 0.000000 0.000000 0.000000 7.125000 0.000000 0.000000 -7.926313 -10.328628 -9.298113
12.870496 16.455278 -13.994490 0.775744 -12.120442 5.486298 0.000000 0.000000 0.000000 -11.268258 -17.192855 -6.955764 0.548141 4.742993 13.177013 0.125023 8.305630 -14.039215 0.536911 -4.694888 -13.040349 0.000000 0.000000 0.000000 13.177843 22.026281 -11.409176 -1.261425 -7.119554 20.069958 1.555517 -21.517484 -10.452104 -0.244675 3.177369 -8.773379 0.284661 -0.112290 7.139009 0.933646 -0.173713 6.152078 0.810611 -0.107773 2.354769 -2.115288 3.881628 -11.197192 1.691473 5.362772 5.135232 1.283572 2.688998 3.556204 0.000000 0.000000 0.000000 3.534919 -19.716257 2.779210 14.971981 -24.106126 3.215022 11.391312 7.478738 -52.566935 0.000000 0.000000 0.000000 -7.125000 0.000000 0.000000 -65.463429 75.362413 51.078722 0.000000 0.000000 0.000000 -0.503496 -21.001682 14.516241 -18.416640 -28.684686 -4.748982 -44.703200 -60.881976 -20.408302 0.000000 0.000000 0.000000 7.125000 0.000000 0.000000 -9.973717 2.700668 -9.648092
12.831016 16.453849 -13.981930 1.110924 -12.438988 5.336814 0.000000 0.000000 0.000000 -11.661314 -17.467160 -6.208648 0.511817 4.585367 12.729733 0.081558 9.168770 -14.426541 0.556032 -4.774779 -13.267587 0.000000 0.000000 0.000000 12.981326 21.761074 -11.637939 -1.315815 -7.265526 20.504459 1.475123 -20.996253 -10.260820 -0.299031 3.514940 -9.716020 -0.150784 0.309609 7.719188 0.637241 0.361278 6.800692 0.722880 0.146837 2.705421 -2.343773 3.238056 -11.500451 2.434239 4.481914 5.372409 1.531798 2.282069 3.700214 0.000000 0.000000 0.000000 8.836339 -17.320719 -37.820769 16.051193 -25.587674 3.669333 2.652832 11.945525 -50.885175 0.000000 0.000000 0.000000 -7.125000 0.000000 0.000000 -65.187955 71.539300 46.546879 0.000000 0.000000 0.000000 -8.738184 -20.373351 54.390982 -17.960598 -28.105073 -4.531521 -26.496220 -47.303519 -19.112728 0.000000 0.000000 0.000000 7.125000 0.000000 0.000000 1.128105 8.811868 0.941247
12.806759 16.434869 -14.006685 0.386107 -11.745304 5.436781 0.000000 0.000000 0.000000 -10.621728 -16.767731 -8.150806 0.708109 5.378172 14.990487 0.215811 7.492673 -14.510087 0.814289 -5.757686 -16.083122 0.000000 0.000000 0.000000 13.868760 20.958527 -12.007159 -1.351263 -7.358813 20.782862 1.422201 -20.666150 -10.372429 -0.259142 3.273447 -9.041049 0.334246 0.156276 8.733265 1.060422 0.167412 7.746973 0.899356 0.052974 3.145892 -2.529619 2.948632 -11.881853 2.303102 4.153496 3.996681 1.479193 2.119008 3.300088 0.000000 0.000000 0.000000 17.373542 -17.623102 -66.065756 26.121065 -37.322306 8.963344 -1.993522 31.581909 -39.529372 0.000000 0.000000 0.000000 -7.125000 0.000000 0.000000 -46.144093 63.501147 23.101106 0.000000 0.000000 0.000000 -20.474241 -22.507324 81.926832 -28.931321 -39.952218 -10.719371 -11.720860 -44.776610 -20.146612 0.000000 0.000000 0.000000 7.125000 0.000000 0.000000 10.718940 9.721869 8.916586
12.793807 16.425910 -14.008981 0.189460 -11.642744 5.736721 0.000000 0.000000 0.000000 -10.203357 -16.507856 -9.220092 0.806790 5.732209 16.009377 0.282790 6.773593 -14.753209 0.819086 -5.774676 -16.131973 0.000000 0.000000 0.000000 14.030653 20.585874 -12.548572 -1.371462 -7.411403 20.940113 1.370741 -20.302254 -10.096437 -0.327050 3.674285 -10.162073 0.536645 0.220600 9.276343 1.177823 0.259249 8.147223 0.902389 0.102367 3.270850 -2.428540 2.771283 -11.080169 2.417671 3.889396 2.874613 1.437171 1.997040 2.767095 0.000000 0.000000 0.000000 23.629998 -18.140653 -77.316656 40.565116 -48.399455 18.861286 3.800022 36.475981 -35.488933 0.000000 0.000000 0.000000 -7.125000 0.000000 0.000000 -35.370392 61.970860 15.652374 0.000000 0.000000 0.000000 -29.034827 -22.713681 89.264805 -44.516506 -50.527834 -21.865299 -12.877891 -55.558267 -15.159866 0.000000 0.000000 0.000000 7.125000 0.000000 0.000000 9.930176 14.608228 7.215465
